<mxfile host="65bd71144e">
    <diagram id="kQsH1G5CMmZ4WWnJtj7y" name="Page-1">
        <mxGraphModel dx="1075" dy="553" grid="1" gridSize="10" guides="1" tooltips="1" connect="1" arrows="1" fold="1" page="1" pageScale="1" pageWidth="827" pageHeight="1169" math="0" shadow="0">
            <root>
                <mxCell id="0"/>
                <mxCell id="1" parent="0"/>
                <mxCell id="2" value="Data Path" style="swimlane;" parent="1" vertex="1">
                    <mxGeometry x="-80" y="20" width="878" height="520" as="geometry"/>
                </mxCell>
                <mxCell id="6" value="Memory" style="swimlane;fillColor=default;glass=0;swimlaneLine=1;swimlaneFillColor=default;" parent="2" vertex="1">
                    <mxGeometry x="660" y="350" width="200" height="430" as="geometry"/>
                </mxCell>
                <mxCell id="139" value="" style="endArrow=classic;html=1;rounded=0;shadow=0;fontSize=10;fillColor=default;entryX=0.298;entryY=1.014;entryDx=0;entryDy=0;entryPerimeter=0;" parent="2" edge="1">
                    <mxGeometry width="50" height="50" relative="1" as="geometry">
                        <mxPoint x="201.54000000000002" y="358.08" as="sourcePoint"/>
                        <mxPoint x="288" y="357.87999999999994" as="targetPoint"/>
                    </mxGeometry>
                </mxCell>
                <mxCell id="140" value="sel_inputs" style="edgeLabel;html=1;align=center;verticalAlign=middle;resizable=0;points=[];fontSize=10;" parent="139" vertex="1" connectable="0">
                    <mxGeometry x="-0.1603" y="1" relative="1" as="geometry">
                        <mxPoint x="4" y="-7" as="offset"/>
                    </mxGeometry>
                </mxCell>
                <mxCell id="141" value="" style="endArrow=classic;html=1;rounded=0;shadow=0;fontSize=10;fillColor=default;entryX=0.25;entryY=1;entryDx=0;entryDy=0;" parent="2" target="93" edge="1">
                    <mxGeometry width="50" height="50" relative="1" as="geometry">
                        <mxPoint x="200" y="375" as="sourcePoint"/>
                        <mxPoint x="286.46000000000004" y="379.9999999999999" as="targetPoint"/>
                    </mxGeometry>
                </mxCell>
                <mxCell id="142" value="sel_inveresion" style="edgeLabel;html=1;align=center;verticalAlign=middle;resizable=0;points=[];fontSize=10;" parent="141" vertex="1" connectable="0">
                    <mxGeometry x="-0.1603" y="1" relative="1" as="geometry">
                        <mxPoint x="4" y="-7" as="offset"/>
                    </mxGeometry>
                </mxCell>
                <mxCell id="143" value="" style="endArrow=classic;html=1;rounded=0;shadow=0;fontSize=10;fillColor=default;entryX=0.396;entryY=1.005;entryDx=0;entryDy=0;entryPerimeter=0;" parent="2" target="93" edge="1">
                    <mxGeometry width="50" height="50" relative="1" as="geometry">
                        <mxPoint x="200" y="390" as="sourcePoint"/>
                        <mxPoint x="286.46000000000004" y="389.9999999999999" as="targetPoint"/>
                    </mxGeometry>
                </mxCell>
                <mxCell id="144" value="sel_inc" style="edgeLabel;html=1;align=center;verticalAlign=middle;resizable=0;points=[];fontSize=10;" parent="143" vertex="1" connectable="0">
                    <mxGeometry x="-0.1603" y="1" relative="1" as="geometry">
                        <mxPoint x="4" y="-7" as="offset"/>
                    </mxGeometry>
                </mxCell>
                <mxCell id="145" value="" style="endArrow=classic;html=1;rounded=0;shadow=0;fontSize=10;fillColor=default;entryX=0.558;entryY=1.004;entryDx=0;entryDy=0;entryPerimeter=0;" parent="2" target="93" edge="1">
                    <mxGeometry width="50" height="50" relative="1" as="geometry">
                        <mxPoint x="200" y="406" as="sourcePoint"/>
                        <mxPoint x="286.46000000000004" y="409.9999999999999" as="targetPoint"/>
                    </mxGeometry>
                </mxCell>
                <mxCell id="146" value="sel_dec" style="edgeLabel;html=1;align=center;verticalAlign=middle;resizable=0;points=[];fontSize=10;" parent="145" vertex="1" connectable="0">
                    <mxGeometry x="-0.1603" y="1" relative="1" as="geometry">
                        <mxPoint x="4" y="-7" as="offset"/>
                    </mxGeometry>
                </mxCell>
                <mxCell id="147" value="" style="endArrow=classic;html=1;rounded=0;shadow=0;fontSize=10;fillColor=default;entryX=0.802;entryY=0.846;entryDx=0;entryDy=0;entryPerimeter=0;" parent="2" target="93" edge="1">
                    <mxGeometry width="50" height="50" relative="1" as="geometry">
                        <mxPoint x="199.99999999999997" y="430.19999999999993" as="sourcePoint"/>
                        <mxPoint x="286.46000000000004" y="429.9999999999999" as="targetPoint"/>
                    </mxGeometry>
                </mxCell>
                <mxCell id="148" value="sel_operation" style="edgeLabel;html=1;align=center;verticalAlign=middle;resizable=0;points=[];fontSize=10;" parent="147" vertex="1" connectable="0">
                    <mxGeometry x="-0.1603" y="1" relative="1" as="geometry">
                        <mxPoint x="4" y="-7" as="offset"/>
                    </mxGeometry>
                </mxCell>
                <mxCell id="153" value="" style="shape=flexArrow;endArrow=classic;html=1;rounded=0;shadow=0;fontSize=10;fillColor=none;" parent="2" edge="1">
                    <mxGeometry width="50" height="50" relative="1" as="geometry">
                        <mxPoint x="170" y="365" as="sourcePoint"/>
                        <mxPoint x="170" y="455" as="targetPoint"/>
                    </mxGeometry>
                </mxCell>
                <mxCell id="154" value="buffer_reg_value" style="edgeLabel;html=1;align=center;verticalAlign=middle;resizable=0;points=[];fontSize=10;" parent="153" vertex="1" connectable="0">
                    <mxGeometry x="0.2061" y="-2" relative="1" as="geometry">
                        <mxPoint x="-48" y="5" as="offset"/>
                    </mxGeometry>
                </mxCell>
                <mxCell id="162" value="Z" style="rounded=1;whiteSpace=wrap;html=1;glass=0;fontSize=10;fillColor=default;" parent="2" vertex="1">
                    <mxGeometry x="310" y="440" width="20" height="15" as="geometry"/>
                </mxCell>
                <mxCell id="161" value="N" style="rounded=1;whiteSpace=wrap;html=1;glass=0;fontSize=10;fillColor=default;" parent="2" vertex="1">
                    <mxGeometry x="290" y="440" width="20" height="15" as="geometry"/>
                </mxCell>
                <mxCell id="165" value="" style="endArrow=classic;html=1;entryX=0;entryY=0.25;entryDx=0;entryDy=0;" parent="2" edge="1">
                    <mxGeometry width="50" height="50" relative="1" as="geometry">
                        <mxPoint x="560" y="490.5" as="sourcePoint"/>
                        <mxPoint x="660" y="490" as="targetPoint"/>
                    </mxGeometry>
                </mxCell>
                <mxCell id="166" value="read_memory" style="edgeLabel;html=1;align=center;verticalAlign=middle;resizable=0;points=[];" parent="165" vertex="1" connectable="0">
                    <mxGeometry x="-0.3733" relative="1" as="geometry">
                        <mxPoint x="9" y="-10" as="offset"/>
                    </mxGeometry>
                </mxCell>
                <mxCell id="4" value="Control Unit" style="swimlane;" parent="1" vertex="1">
                    <mxGeometry x="560" y="680" width="470" height="140" as="geometry"/>
                </mxCell>
                <mxCell id="5" value="IR" style="rounded=1;whiteSpace=wrap;html=1;" parent="4" vertex="1">
                    <mxGeometry x="390" y="50" width="70" height="30" as="geometry"/>
                </mxCell>
                <mxCell id="16" value="PC" style="rounded=1;whiteSpace=wrap;html=1;" parent="4" vertex="1">
                    <mxGeometry x="310" y="50" width="70" height="30" as="geometry"/>
                </mxCell>
                <mxCell id="21" value="" style="shape=flexArrow;endArrow=classic;html=1;exitX=0.5;exitY=0;exitDx=0;exitDy=0;entryX=0.1;entryY=0.974;entryDx=0;entryDy=0;entryPerimeter=0;edgeStyle=orthogonalEdgeStyle;" parent="1" source="16" edge="1">
                    <mxGeometry width="50" height="50" relative="1" as="geometry">
                        <mxPoint x="780" y="520" as="sourcePoint"/>
                        <mxPoint x="694.9999999999998" y="201.04000000000008" as="targetPoint"/>
                        <Array as="points">
                            <mxPoint x="905" y="120"/>
                            <mxPoint x="695" y="120"/>
                        </Array>
                    </mxGeometry>
                </mxCell>
                <mxCell id="56" value="&lt;font style=&quot;font-size: 13px;&quot;&gt;&lt;b&gt;pc&lt;/b&gt;&lt;/font&gt;" style="edgeLabel;html=1;align=center;verticalAlign=middle;resizable=0;points=[];fontSize=12;" parent="21" vertex="1" connectable="0">
                    <mxGeometry x="-0.8155" y="2" relative="1" as="geometry">
                        <mxPoint x="-13" y="-228" as="offset"/>
                    </mxGeometry>
                </mxCell>
                <mxCell id="43" value="" style="shape=flexArrow;endArrow=none;html=1;fontSize=11;endFill=0;" parent="1" edge="1">
                    <mxGeometry width="50" height="50" relative="1" as="geometry">
                        <mxPoint x="40" y="650" as="sourcePoint"/>
                        <mxPoint x="510" y="650" as="targetPoint"/>
                    </mxGeometry>
                </mxCell>
                <mxCell id="44" value="&lt;b&gt;&lt;font style=&quot;font-size: 12px;&quot;&gt;Data Bus&lt;/font&gt;&lt;/b&gt;" style="edgeLabel;html=1;align=center;verticalAlign=middle;resizable=0;points=[];fontSize=11;" parent="43" vertex="1" connectable="0">
                    <mxGeometry x="-0.0695" y="1" relative="1" as="geometry">
                        <mxPoint x="16" y="-19" as="offset"/>
                    </mxGeometry>
                </mxCell>
                <mxCell id="54" value="" style="shape=flexArrow;endArrow=classic;html=1;fontSize=12;" parent="1" edge="1">
                    <mxGeometry width="50" height="50" relative="1" as="geometry">
                        <mxPoint x="420" y="650" as="sourcePoint"/>
                        <mxPoint x="420" y="560" as="targetPoint"/>
                    </mxGeometry>
                </mxCell>
                <mxCell id="55" value="&lt;b&gt;in_data_bus&lt;/b&gt;" style="edgeLabel;html=1;align=center;verticalAlign=middle;resizable=0;points=[];fontSize=12;rotation=270;" parent="54" vertex="1" connectable="0">
                    <mxGeometry x="-0.3523" y="3" relative="1" as="geometry">
                        <mxPoint x="-12" y="-11" as="offset"/>
                    </mxGeometry>
                </mxCell>
                <mxCell id="59" value="" style="shape=flexArrow;endArrow=classic;html=1;fontSize=13;exitX=0.5;exitY=0;exitDx=0;exitDy=0;" parent="1" source="5" edge="1">
                    <mxGeometry width="50" height="50" relative="1" as="geometry">
                        <mxPoint x="720" y="610" as="sourcePoint"/>
                        <mxPoint x="985" y="550" as="targetPoint"/>
                    </mxGeometry>
                </mxCell>
                <mxCell id="60" value="&lt;b style=&quot;&quot;&gt;instruction_arg&lt;/b&gt;" style="edgeLabel;html=1;align=center;verticalAlign=middle;resizable=0;points=[];fontSize=13;rotation=270;" parent="59" vertex="1" connectable="0">
                    <mxGeometry x="0.1952" y="-1" relative="1" as="geometry">
                        <mxPoint x="-16" y="8" as="offset"/>
                    </mxGeometry>
                </mxCell>
                <mxCell id="78" value="BR" style="rounded=1;whiteSpace=wrap;html=1;" parent="1" vertex="1">
                    <mxGeometry x="90" y="300" width="70" height="30" as="geometry"/>
                </mxCell>
                <mxCell id="79" value="AC" style="rounded=1;whiteSpace=wrap;html=1;" parent="1" vertex="1">
                    <mxGeometry x="308" y="300" width="70" height="30" as="geometry"/>
                </mxCell>
                <mxCell id="80" value="AR" style="rounded=1;whiteSpace=wrap;html=1;" parent="1" vertex="1">
                    <mxGeometry x="598" y="290" width="70" height="30" as="geometry"/>
                </mxCell>
                <mxCell id="81" value="MUX" style="shape=trapezoid;perimeter=trapezoidPerimeter;whiteSpace=wrap;html=1;fixedSize=1;direction=west;" parent="1" vertex="1">
                    <mxGeometry x="555.5" y="200" width="155" height="40" as="geometry"/>
                </mxCell>
                <mxCell id="82" value="" style="shape=flexArrow;endArrow=classic;html=1;entryX=0.5;entryY=0;entryDx=0;entryDy=0;exitX=0.5;exitY=0;exitDx=0;exitDy=0;" parent="1" source="81" target="80" edge="1">
                    <mxGeometry width="50" height="50" relative="1" as="geometry">
                        <mxPoint x="400" y="220" as="sourcePoint"/>
                        <mxPoint x="450" y="170" as="targetPoint"/>
                    </mxGeometry>
                </mxCell>
                <mxCell id="83" value="address" style="edgeLabel;html=1;align=center;verticalAlign=middle;resizable=0;points=[];" parent="82" vertex="1" connectable="0">
                    <mxGeometry x="-0.3382" y="3" relative="1" as="geometry">
                        <mxPoint x="32" y="4" as="offset"/>
                    </mxGeometry>
                </mxCell>
                <mxCell id="84" value="" style="shape=flexArrow;endArrow=classic;html=1;exitX=0.5;exitY=1;exitDx=0;exitDy=0;" parent="1" source="80" edge="1">
                    <mxGeometry width="50" height="50" relative="1" as="geometry">
                        <mxPoint x="604.62" y="320" as="sourcePoint"/>
                        <mxPoint x="633.0000000000002" y="370" as="targetPoint"/>
                    </mxGeometry>
                </mxCell>
                <mxCell id="85" value="address" style="edgeLabel;html=1;align=center;verticalAlign=middle;resizable=0;points=[];" parent="84" vertex="1" connectable="0">
                    <mxGeometry x="-0.3382" y="3" relative="1" as="geometry">
                        <mxPoint x="32" y="4" as="offset"/>
                    </mxGeometry>
                </mxCell>
                <mxCell id="88" value="int_pc_addr" style="edgeLabel;html=1;align=center;verticalAlign=middle;resizable=0;points=[];rotation=270;fontSize=11;" parent="1" vertex="1" connectable="0">
                    <mxGeometry x="643" y="139" as="geometry"/>
                </mxCell>
                <mxCell id="89" value="" style="endArrow=classic;html=1;fontSize=11;entryX=0.948;entryY=0.514;entryDx=0;entryDy=0;entryPerimeter=0;" parent="1" target="81" edge="1">
                    <mxGeometry width="50" height="50" relative="1" as="geometry">
                        <mxPoint x="467.9999999999998" y="220" as="sourcePoint"/>
                        <mxPoint x="532.8448275862069" y="209.99965517241378" as="targetPoint"/>
                    </mxGeometry>
                </mxCell>
                <mxCell id="90" value="sel_instr_reg" style="edgeLabel;html=1;align=center;verticalAlign=middle;resizable=0;points=[];fontSize=11;" parent="89" vertex="1" connectable="0">
                    <mxGeometry x="-0.4773" relative="1" as="geometry">
                        <mxPoint x="16" y="-8" as="offset"/>
                    </mxGeometry>
                </mxCell>
                <mxCell id="91" value="" style="endArrow=classic;html=1;fontSize=11;entryX=0.898;entryY=0.07;entryDx=0;entryDy=0;entryPerimeter=0;" parent="1" target="81" edge="1">
                    <mxGeometry width="50" height="50" relative="1" as="geometry">
                        <mxPoint x="467.9999999999998" y="237.0000000000001" as="sourcePoint"/>
                        <mxPoint x="528.4300000000001" y="220.00000000000003" as="targetPoint"/>
                    </mxGeometry>
                </mxCell>
                <mxCell id="92" value="sel_int_reg /2" style="edgeLabel;html=1;align=center;verticalAlign=middle;resizable=0;points=[];fontSize=11;" parent="91" vertex="1" connectable="0">
                    <mxGeometry x="-0.4773" relative="1" as="geometry">
                        <mxPoint x="16" y="-8" as="offset"/>
                    </mxGeometry>
                </mxCell>
                <mxCell id="93" value="ALU" style="shape=step;perimeter=stepPerimeter;whiteSpace=wrap;html=1;fixedSize=1;fontSize=11;direction=south;size=30;" parent="1" vertex="1">
                    <mxGeometry x="208" y="370" width="110" height="100" as="geometry"/>
                </mxCell>
                <mxCell id="94" value="" style="shape=flexArrow;endArrow=classic;html=1;fontSize=11;entryX=0.129;entryY=0.746;entryDx=0;entryDy=0;entryPerimeter=0;edgeStyle=orthogonalEdgeStyle;" parent="1" target="93" edge="1">
                    <mxGeometry width="50" height="50" relative="1" as="geometry">
                        <mxPoint x="110" y="350" as="sourcePoint"/>
                        <mxPoint x="350" y="390" as="targetPoint"/>
                    </mxGeometry>
                </mxCell>
                <mxCell id="95" value="" style="shape=flexArrow;endArrow=classic;html=1;fontSize=11;entryX=0.125;entryY=0.223;entryDx=0;entryDy=0;entryPerimeter=0;edgeStyle=orthogonalEdgeStyle;" parent="1" target="93" edge="1">
                    <mxGeometry width="50" height="50" relative="1" as="geometry">
                        <mxPoint x="360" y="340" as="sourcePoint"/>
                        <mxPoint x="350" y="390" as="targetPoint"/>
                    </mxGeometry>
                </mxCell>
                <mxCell id="96" value="" style="endArrow=classic;html=1;fontSize=11;entryX=0;entryY=0.5;entryDx=0;entryDy=0;" parent="1" edge="1">
                    <mxGeometry width="50" height="50" relative="1" as="geometry">
                        <mxPoint x="507.9999999999998" y="305" as="sourcePoint"/>
                        <mxPoint x="597.9999999999998" y="304.8299999999999" as="targetPoint"/>
                    </mxGeometry>
                </mxCell>
                <mxCell id="97" value="latch_adress_reg" style="edgeLabel;html=1;align=center;verticalAlign=middle;resizable=0;points=[];fontSize=11;" parent="96" vertex="1" connectable="0">
                    <mxGeometry x="-0.4667" y="4" relative="1" as="geometry">
                        <mxPoint x="14" y="-6" as="offset"/>
                    </mxGeometry>
                </mxCell>
                <mxCell id="98" value="MUX" style="shape=trapezoid;perimeter=trapezoidPerimeter;whiteSpace=wrap;html=1;fixedSize=1;direction=west;" parent="1" vertex="1">
                    <mxGeometry x="285.5" y="230" width="115" height="46.95" as="geometry"/>
                </mxCell>
                <mxCell id="99" value="" style="shape=flexArrow;endArrow=classic;html=1;fontSize=12;exitX=0.503;exitY=-0.021;exitDx=0;exitDy=0;entryX=0.5;entryY=0;entryDx=0;entryDy=0;exitPerimeter=0;" parent="1" source="98" target="79" edge="1">
                    <mxGeometry width="50" height="50" relative="1" as="geometry">
                        <mxPoint x="320" y="310" as="sourcePoint"/>
                        <mxPoint x="370" y="260" as="targetPoint"/>
                    </mxGeometry>
                </mxCell>
                <mxCell id="100" value="" style="shape=flexArrow;endArrow=classic;html=1;fontSize=12;exitX=1;exitY=0.5;exitDx=0;exitDy=0;entryX=0.076;entryY=0.996;entryDx=0;entryDy=0;entryPerimeter=0;edgeStyle=orthogonalEdgeStyle;" parent="1" source="93" target="98" edge="1">
                    <mxGeometry width="50" height="50" relative="1" as="geometry">
                        <mxPoint x="260" y="330" as="sourcePoint"/>
                        <mxPoint x="310" y="280" as="targetPoint"/>
                        <Array as="points">
                            <mxPoint x="263" y="480"/>
                            <mxPoint x="418" y="480"/>
                            <mxPoint x="418" y="170"/>
                            <mxPoint x="392" y="170"/>
                        </Array>
                    </mxGeometry>
                </mxCell>
                <mxCell id="101" value="alu" style="edgeLabel;html=1;align=center;verticalAlign=middle;resizable=0;points=[];fontSize=12;" parent="100" vertex="1" connectable="0">
                    <mxGeometry x="0.7421" y="-2" relative="1" as="geometry">
                        <mxPoint x="-9" y="-12" as="offset"/>
                    </mxGeometry>
                </mxCell>
                <mxCell id="102" value="" style="shape=flexArrow;endArrow=classic;html=1;fontSize=12;entryX=0.893;entryY=0.996;entryDx=0;entryDy=0;entryPerimeter=0;" parent="1" target="98" edge="1">
                    <mxGeometry width="50" height="50" relative="1" as="geometry">
                        <mxPoint x="298" y="120" as="sourcePoint"/>
                        <mxPoint x="270" y="210" as="targetPoint"/>
                        <Array as="points"/>
                    </mxGeometry>
                </mxCell>
                <mxCell id="103" value="in_data_bus" style="edgeLabel;html=1;align=center;verticalAlign=middle;resizable=0;points=[];fontSize=12;rotation=270;" parent="102" vertex="1" connectable="0">
                    <mxGeometry x="-0.8957" y="-1" relative="1" as="geometry">
                        <mxPoint x="-14" y="35" as="offset"/>
                    </mxGeometry>
                </mxCell>
                <mxCell id="104" value="" style="endArrow=classic;html=1;fontSize=13;entryX=0.939;entryY=0.57;entryDx=0;entryDy=0;entryPerimeter=0;edgeStyle=orthogonalEdgeStyle;rounded=0;" parent="1" target="98" edge="1">
                    <mxGeometry width="50" height="50" relative="1" as="geometry">
                        <mxPoint x="208" y="230" as="sourcePoint"/>
                        <mxPoint x="257.50499999999994" y="247.23000000000002" as="targetPoint"/>
                        <Array as="points">
                            <mxPoint x="248" y="230"/>
                            <mxPoint x="248" y="250"/>
                        </Array>
                    </mxGeometry>
                </mxCell>
                <mxCell id="105" value="&lt;font style=&quot;font-size: 11px;&quot;&gt;sel_io_data&lt;/font&gt;" style="edgeLabel;html=1;align=center;verticalAlign=middle;resizable=0;points=[];fontSize=13;" parent="104" vertex="1" connectable="0">
                    <mxGeometry x="-0.5235" y="-1" relative="1" as="geometry">
                        <mxPoint x="-15" y="-11" as="offset"/>
                    </mxGeometry>
                </mxCell>
                <mxCell id="106" value="" style="endArrow=classic;html=1;fontSize=13;entryX=0.886;entryY=0.255;entryDx=0;entryDy=0;entryPerimeter=0;edgeStyle=orthogonalEdgeStyle;rounded=0;" parent="1" target="98" edge="1">
                    <mxGeometry width="50" height="50" relative="1" as="geometry">
                        <mxPoint x="198" y="250" as="sourcePoint"/>
                        <mxPoint x="268.065" y="249.99890000000005" as="targetPoint"/>
                        <Array as="points">
                            <mxPoint x="198" y="250"/>
                            <mxPoint x="242" y="250"/>
                            <mxPoint x="242" y="265"/>
                        </Array>
                    </mxGeometry>
                </mxCell>
                <mxCell id="107" value="&lt;font style=&quot;font-size: 11px;&quot;&gt;sel_alu&lt;/font&gt;" style="edgeLabel;html=1;align=center;verticalAlign=middle;resizable=0;points=[];fontSize=11;" parent="106" vertex="1" connectable="0">
                    <mxGeometry x="-0.5235" y="-1" relative="1" as="geometry">
                        <mxPoint x="-8" y="-11" as="offset"/>
                    </mxGeometry>
                </mxCell>
                <mxCell id="108" value="" style="endArrow=classic;html=1;fontSize=13;entryX=0.839;entryY=0.043;entryDx=0;entryDy=0;entryPerimeter=0;edgeStyle=orthogonalEdgeStyle;rounded=0;" parent="1" target="98" edge="1">
                    <mxGeometry width="50" height="50" relative="1" as="geometry">
                        <mxPoint x="190" y="270" as="sourcePoint"/>
                        <mxPoint x="268.065" y="259.7889" as="targetPoint"/>
                        <Array as="points">
                            <mxPoint x="190" y="270"/>
                            <mxPoint x="230" y="270"/>
                            <mxPoint x="230" y="275"/>
                        </Array>
                    </mxGeometry>
                </mxCell>
                <mxCell id="109" value="&lt;font style=&quot;font-size: 11px;&quot;&gt;sel_pc&lt;/font&gt;" style="edgeLabel;html=1;align=center;verticalAlign=middle;resizable=0;points=[];fontSize=13;" parent="108" vertex="1" connectable="0">
                    <mxGeometry x="-0.5235" y="-1" relative="1" as="geometry">
                        <mxPoint x="-18" y="-10" as="offset"/>
                    </mxGeometry>
                </mxCell>
                <mxCell id="110" value="MUX" style="shape=trapezoid;perimeter=trapezoidPerimeter;whiteSpace=wrap;html=1;fixedSize=1;direction=west;" parent="1" vertex="1">
                    <mxGeometry x="77.75" y="230" width="94.5" height="38.58" as="geometry"/>
                </mxCell>
                <mxCell id="111" value="" style="shape=flexArrow;endArrow=classic;html=1;rounded=0;fontSize=11;entryX=0.5;entryY=0;entryDx=0;entryDy=0;" parent="1" target="78" edge="1">
                    <mxGeometry width="50" height="50" relative="1" as="geometry">
                        <mxPoint x="125" y="270" as="sourcePoint"/>
                        <mxPoint x="192" y="170" as="targetPoint"/>
                    </mxGeometry>
                </mxCell>
                <mxCell id="112" value="" style="shape=flexArrow;endArrow=classic;html=1;entryX=0.646;entryY=0.99;entryDx=0;entryDy=0;entryPerimeter=0;" parent="1" target="81" edge="1">
                    <mxGeometry width="50" height="50" relative="1" as="geometry">
                        <mxPoint x="610" y="110" as="sourcePoint"/>
                        <mxPoint x="720" y="250" as="targetPoint"/>
                    </mxGeometry>
                </mxCell>
                <mxCell id="113" value="int_acc_addr" style="edgeLabel;html=1;align=center;verticalAlign=middle;resizable=0;points=[];rotation=270;" parent="112" vertex="1" connectable="0">
                    <mxGeometry x="-0.0886" y="-1" relative="1" as="geometry">
                        <mxPoint x="-12" y="-11" as="offset"/>
                    </mxGeometry>
                </mxCell>
                <mxCell id="114" value="instruction_argument" style="edgeLabel;html=1;align=center;verticalAlign=middle;resizable=0;points=[];fontSize=11;" parent="1" vertex="1" connectable="0">
                    <mxGeometry x="769.2500000000002" y="99.99999999999989" as="geometry"/>
                </mxCell>
                <mxCell id="115" value="" style="shape=flexArrow;endArrow=classic;html=1;entryX=0.336;entryY=0.962;entryDx=0;entryDy=0;entryPerimeter=0;" parent="1" target="81" edge="1">
                    <mxGeometry width="50" height="50" relative="1" as="geometry">
                        <mxPoint x="658.0000000000002" y="110" as="sourcePoint"/>
                        <mxPoint x="830" y="210" as="targetPoint"/>
                    </mxGeometry>
                </mxCell>
                <mxCell id="116" value="" style="endArrow=classic;html=1;fontSize=11;entryX=0.994;entryY=0.882;entryDx=0;entryDy=0;entryPerimeter=0;" parent="1" target="81" edge="1">
                    <mxGeometry width="50" height="50" relative="1" as="geometry">
                        <mxPoint x="480" y="205" as="sourcePoint"/>
                        <mxPoint x="530" y="260" as="targetPoint"/>
                    </mxGeometry>
                </mxCell>
                <mxCell id="117" value="sel_buff_reg" style="edgeLabel;html=1;align=center;verticalAlign=middle;resizable=0;points=[];fontSize=11;" parent="116" vertex="1" connectable="0">
                    <mxGeometry x="-0.4773" relative="1" as="geometry">
                        <mxPoint x="16" y="-11" as="offset"/>
                    </mxGeometry>
                </mxCell>
                <mxCell id="118" value="" style="endArrow=classic;html=1;fontSize=11;entryX=1;entryY=0.5;entryDx=0;entryDy=0;" parent="1" target="78" edge="1">
                    <mxGeometry width="50" height="50" relative="1" as="geometry">
                        <mxPoint x="210" y="315" as="sourcePoint"/>
                        <mxPoint x="260" y="360" as="targetPoint"/>
                    </mxGeometry>
                </mxCell>
                <mxCell id="119" value="latch_buf" style="edgeLabel;html=1;align=center;verticalAlign=middle;resizable=0;points=[];fontSize=11;" parent="118" vertex="1" connectable="0">
                    <mxGeometry x="-0.4667" relative="1" as="geometry">
                        <mxPoint x="-7" y="-10" as="offset"/>
                    </mxGeometry>
                </mxCell>
                <mxCell id="120" value="" style="endArrow=classic;html=1;fontSize=11;entryX=0;entryY=0.5;entryDx=0;entryDy=0;" parent="1" target="79" edge="1">
                    <mxGeometry width="50" height="50" relative="1" as="geometry">
                        <mxPoint x="260" y="315" as="sourcePoint"/>
                        <mxPoint x="350" y="330" as="targetPoint"/>
                    </mxGeometry>
                </mxCell>
                <mxCell id="121" value="latch_acc" style="edgeLabel;html=1;align=center;verticalAlign=middle;resizable=0;points=[];fontSize=11;" parent="120" vertex="1" connectable="0">
                    <mxGeometry x="-0.5933" relative="1" as="geometry">
                        <mxPoint x="6" y="-10" as="offset"/>
                    </mxGeometry>
                </mxCell>
                <mxCell id="122" value="" style="shape=flexArrow;endArrow=classic;html=1;fontSize=12;entryX=0.617;entryY=1.01;entryDx=0;entryDy=0;entryPerimeter=0;" parent="1" target="98" edge="1">
                    <mxGeometry width="50" height="50" relative="1" as="geometry">
                        <mxPoint x="330" y="120" as="sourcePoint"/>
                        <mxPoint x="450" y="260" as="targetPoint"/>
                        <Array as="points"/>
                    </mxGeometry>
                </mxCell>
                <mxCell id="123" value="pc" style="edgeLabel;html=1;align=center;verticalAlign=middle;resizable=0;points=[];fontSize=12;" parent="122" vertex="1" connectable="0">
                    <mxGeometry x="-0.8957" y="-1" relative="1" as="geometry">
                        <mxPoint y="-15" as="offset"/>
                    </mxGeometry>
                </mxCell>
                <mxCell id="124" value="" style="endArrow=classic;html=1;fontSize=13;entryX=1.002;entryY=0.916;entryDx=0;entryDy=0;entryPerimeter=0;rounded=0;edgeStyle=orthogonalEdgeStyle;" parent="1" target="98" edge="1">
                    <mxGeometry width="50" height="50" relative="1" as="geometry">
                        <mxPoint x="220" y="210" as="sourcePoint"/>
                        <mxPoint x="290" y="230" as="targetPoint"/>
                        <Array as="points">
                            <mxPoint x="240" y="210"/>
                            <mxPoint x="269" y="210"/>
                            <mxPoint x="269" y="234"/>
                        </Array>
                    </mxGeometry>
                </mxCell>
                <mxCell id="125" value="&lt;font style=&quot;font-size: 11px;&quot;&gt;sel_mem&lt;/font&gt;" style="edgeLabel;html=1;align=center;verticalAlign=middle;resizable=0;points=[];fontSize=13;" parent="124" vertex="1" connectable="0">
                    <mxGeometry x="-0.5235" y="-1" relative="1" as="geometry">
                        <mxPoint x="-4" y="-11" as="offset"/>
                    </mxGeometry>
                </mxCell>
                <mxCell id="126" value="" style="shape=flexArrow;endArrow=classic;html=1;rounded=0;fontSize=11;entryX=0.134;entryY=1.012;entryDx=0;entryDy=0;entryPerimeter=0;edgeStyle=orthogonalEdgeStyle;" parent="1" target="110" edge="1">
                    <mxGeometry width="50" height="50" relative="1" as="geometry">
                        <mxPoint x="230" y="140" as="sourcePoint"/>
                        <mxPoint x="220" y="190" as="targetPoint"/>
                    </mxGeometry>
                </mxCell>
                <mxCell id="127" value="&lt;font style=&quot;font-size: 12px;&quot;&gt;instruction_arg&lt;/font&gt;" style="edgeLabel;html=1;align=center;verticalAlign=middle;resizable=0;points=[];fontSize=11;" parent="126" vertex="1" connectable="0">
                    <mxGeometry x="-0.4613" y="1" relative="1" as="geometry">
                        <mxPoint x="5" y="-17" as="offset"/>
                    </mxGeometry>
                </mxCell>
                <mxCell id="128" value="" style="shape=flexArrow;endArrow=classic;html=1;rounded=0;fontSize=12;edgeStyle=orthogonalEdgeStyle;entryX=0.508;entryY=1.072;entryDx=0;entryDy=0;entryPerimeter=0;" parent="1" target="110" edge="1">
                    <mxGeometry width="50" height="50" relative="1" as="geometry">
                        <mxPoint x="370" y="100" as="sourcePoint"/>
                        <mxPoint x="130" y="220" as="targetPoint"/>
                    </mxGeometry>
                </mxCell>
                <mxCell id="129" value="" style="shape=flexArrow;endArrow=classic;html=1;fontSize=12;edgeStyle=orthogonalEdgeStyle;width=13.731343283582088;endSize=5.880597014925373;endWidth=14.66326902074991;entryX=0.369;entryY=0.996;entryDx=0;entryDy=0;entryPerimeter=0;shadow=0;fillColor=default;" parent="1" target="98" edge="1">
                    <mxGeometry width="50" height="50" relative="1" as="geometry">
                        <mxPoint x="580" y="410" as="sourcePoint"/>
                        <mxPoint x="370" y="220" as="targetPoint"/>
                        <Array as="points">
                            <mxPoint x="460" y="410"/>
                            <mxPoint x="460" y="100"/>
                            <mxPoint x="358" y="100"/>
                        </Array>
                    </mxGeometry>
                </mxCell>
                <mxCell id="130" value="mem_value" style="edgeLabel;html=1;align=center;verticalAlign=middle;resizable=0;points=[];fontSize=12;" parent="129" vertex="1" connectable="0">
                    <mxGeometry x="0.6012" y="-1" relative="1" as="geometry">
                        <mxPoint x="-10" y="-17" as="offset"/>
                    </mxGeometry>
                </mxCell>
                <mxCell id="131" value="" style="shape=flexArrow;endArrow=classic;html=1;rounded=0;shadow=0;fontSize=12;fillColor=default;entryX=0.868;entryY=1.019;entryDx=0;entryDy=0;entryPerimeter=0;edgeStyle=orthogonalEdgeStyle;" parent="1" target="110" edge="1">
                    <mxGeometry width="50" height="50" relative="1" as="geometry">
                        <mxPoint x="60" y="130" as="sourcePoint"/>
                        <mxPoint x="220" y="210" as="targetPoint"/>
                        <Array as="points">
                            <mxPoint x="90" y="130"/>
                        </Array>
                    </mxGeometry>
                </mxCell>
                <mxCell id="132" value="int0 (0)" style="edgeLabel;html=1;align=center;verticalAlign=middle;resizable=0;points=[];fontSize=12;" parent="131" vertex="1" connectable="0">
                    <mxGeometry x="-0.7497" y="1" relative="1" as="geometry">
                        <mxPoint x="2" y="-13" as="offset"/>
                    </mxGeometry>
                </mxCell>
                <mxCell id="133" value="" style="endArrow=classic;html=1;rounded=0;shadow=0;fontSize=12;fillColor=default;entryX=0.98;entryY=0.901;entryDx=0;entryDy=0;entryPerimeter=0;" parent="1" target="110" edge="1">
                    <mxGeometry width="50" height="50" relative="1" as="geometry">
                        <mxPoint x="-10" y="234" as="sourcePoint"/>
                        <mxPoint x="210" y="240" as="targetPoint"/>
                    </mxGeometry>
                </mxCell>
                <mxCell id="134" value="sel_mem" style="edgeLabel;html=1;align=center;verticalAlign=middle;resizable=0;points=[];fontSize=12;" parent="133" vertex="1" connectable="0">
                    <mxGeometry x="-0.4573" y="1" relative="1" as="geometry">
                        <mxPoint x="4" y="-9" as="offset"/>
                    </mxGeometry>
                </mxCell>
                <mxCell id="135" value="" style="endArrow=classic;html=1;rounded=0;shadow=0;fontSize=12;fillColor=default;entryX=0.919;entryY=0.552;entryDx=0;entryDy=0;entryPerimeter=0;" parent="1" target="110" edge="1">
                    <mxGeometry width="50" height="50" relative="1" as="geometry">
                        <mxPoint y="247" as="sourcePoint"/>
                        <mxPoint x="210" y="240" as="targetPoint"/>
                    </mxGeometry>
                </mxCell>
                <mxCell id="136" value="&lt;font style=&quot;font-size: 10px;&quot;&gt;sel_int0&lt;/font&gt;" style="edgeLabel;html=1;align=center;verticalAlign=middle;resizable=0;points=[];fontSize=12;" parent="135" vertex="1" connectable="0">
                    <mxGeometry x="-0.5028" relative="1" as="geometry">
                        <mxPoint y="-9" as="offset"/>
                    </mxGeometry>
                </mxCell>
                <mxCell id="137" value="" style="endArrow=classic;html=1;rounded=0;shadow=0;fontSize=12;fillColor=default;entryX=0.828;entryY=0.125;entryDx=0;entryDy=0;entryPerimeter=0;" parent="1" target="110" edge="1">
                    <mxGeometry width="50" height="50" relative="1" as="geometry">
                        <mxPoint x="10" y="264" as="sourcePoint"/>
                        <mxPoint x="80" y="270" as="targetPoint"/>
                    </mxGeometry>
                </mxCell>
                <mxCell id="138" value="&lt;font style=&quot;font-size: 10px;&quot;&gt;sel_instr_arg&lt;/font&gt;" style="edgeLabel;html=1;align=center;verticalAlign=middle;resizable=0;points=[];fontSize=12;" parent="137" vertex="1" connectable="0">
                    <mxGeometry x="-0.3039" y="1" relative="1" as="geometry">
                        <mxPoint y="-7" as="offset"/>
                    </mxGeometry>
                </mxCell>
                <mxCell id="149" value="" style="endArrow=classic;html=1;rounded=0;shadow=0;fontSize=10;fillColor=default;dashed=1;" parent="1" edge="1">
                    <mxGeometry width="50" height="50" relative="1" as="geometry">
                        <mxPoint x="50" y="680" as="sourcePoint"/>
                        <mxPoint x="510" y="680" as="targetPoint"/>
                    </mxGeometry>
                </mxCell>
                <mxCell id="150" value="input" style="edgeLabel;html=1;align=center;verticalAlign=middle;resizable=0;points=[];fontSize=10;" parent="149" vertex="1" connectable="0">
                    <mxGeometry x="-0.0859" relative="1" as="geometry">
                        <mxPoint x="3" y="-10" as="offset"/>
                    </mxGeometry>
                </mxCell>
                <mxCell id="152" value="IO Controller" style="swimlane;glass=0;fontSize=10;fillColor=default;" parent="1" vertex="1">
                    <mxGeometry x="1041" y="290" width="200" height="200" as="geometry"/>
                </mxCell>
                <mxCell id="86" value="" style="shape=flexArrow;endArrow=classic;html=1;entryX=0.899;entryY=0.997;entryDx=0;entryDy=0;entryPerimeter=0;edgeStyle=orthogonalEdgeStyle;fillColor=default;exitX=0.28;exitY=1.057;exitDx=0;exitDy=0;exitPerimeter=0;" parent="1" source="78" target="81" edge="1">
                    <mxGeometry width="50" height="50" relative="1" as="geometry">
                        <mxPoint x="110" y="360" as="sourcePoint"/>
                        <mxPoint x="720" y="450" as="targetPoint"/>
                        <Array as="points">
                            <mxPoint x="110" y="360"/>
                            <mxPoint x="110" y="360"/>
                            <mxPoint x="110" y="380"/>
                            <mxPoint x="-40" y="380"/>
                            <mxPoint x="-40" y="60"/>
                            <mxPoint x="571" y="60"/>
                        </Array>
                    </mxGeometry>
                </mxCell>
                <mxCell id="87" value="in_buffer_addr" style="edgeLabel;html=1;align=center;verticalAlign=middle;resizable=0;points=[];fontSize=11;rotation=270;" parent="86" vertex="1" connectable="0">
                    <mxGeometry x="0.7" y="-1" relative="1" as="geometry">
                        <mxPoint x="29" y="78" as="offset"/>
                    </mxGeometry>
                </mxCell>
                <mxCell id="155" value="" style="shape=flexArrow;endArrow=classic;html=1;rounded=0;shadow=0;sketch=0;fontSize=10;fillColor=none;entryX=0;entryY=0.5;entryDx=0;entryDy=0;" parent="1" target="152" edge="1">
                    <mxGeometry width="50" height="50" relative="1" as="geometry">
                        <mxPoint x="950" y="390" as="sourcePoint"/>
                        <mxPoint x="1200" y="290" as="targetPoint"/>
                    </mxGeometry>
                </mxCell>
                <mxCell id="156" value="buffer_reg_value" style="edgeLabel;html=1;align=center;verticalAlign=middle;resizable=0;points=[];fontSize=10;" parent="155" vertex="1" connectable="0">
                    <mxGeometry x="-0.5507" y="2" relative="1" as="geometry">
                        <mxPoint y="-13" as="offset"/>
                    </mxGeometry>
                </mxCell>
                <mxCell id="157" value="" style="shape=flexArrow;endArrow=classic;html=1;rounded=0;shadow=0;sketch=0;fontSize=10;fillColor=none;exitX=0.806;exitY=1.027;exitDx=0;exitDy=0;exitPerimeter=0;" parent="1" source="79" edge="1">
                    <mxGeometry width="50" height="50" relative="1" as="geometry">
                        <mxPoint x="290" y="490" as="sourcePoint"/>
                        <mxPoint x="364" y="440" as="targetPoint"/>
                    </mxGeometry>
                </mxCell>
                <mxCell id="158" value="out_data_bus" style="edgeLabel;html=1;align=center;verticalAlign=middle;resizable=0;points=[];fontSize=10;rotation=270;" parent="157" vertex="1" connectable="0">
                    <mxGeometry x="-0.2389" y="1" relative="1" as="geometry">
                        <mxPoint x="-15" y="8" as="offset"/>
                    </mxGeometry>
                </mxCell>
                <mxCell id="159" value="" style="shape=flexArrow;endArrow=classic;html=1;rounded=0;shadow=0;sketch=0;fontSize=10;fillColor=none;" parent="1" edge="1">
                    <mxGeometry width="50" height="50" relative="1" as="geometry">
                        <mxPoint x="480" y="560" as="sourcePoint"/>
                        <mxPoint x="480" y="650" as="targetPoint"/>
                    </mxGeometry>
                </mxCell>
                <mxCell id="160" value="&lt;b&gt;in_data_bus&lt;/b&gt;" style="edgeLabel;html=1;align=center;verticalAlign=middle;resizable=0;points=[];fontSize=10;rotation=270;" parent="159" vertex="1" connectable="0">
                    <mxGeometry x="-0.121" y="2" relative="1" as="geometry">
                        <mxPoint x="-16" as="offset"/>
                    </mxGeometry>
                </mxCell>
                <mxCell id="163" value="" style="endArrow=classic;html=1;entryX=0;entryY=0.25;entryDx=0;entryDy=0;" parent="1" target="6" edge="1">
                    <mxGeometry width="50" height="50" relative="1" as="geometry">
                        <mxPoint x="480" y="478" as="sourcePoint"/>
                        <mxPoint x="460" y="400" as="targetPoint"/>
                    </mxGeometry>
                </mxCell>
                <mxCell id="164" value="read_memory" style="edgeLabel;html=1;align=center;verticalAlign=middle;resizable=0;points=[];" parent="163" vertex="1" connectable="0">
                    <mxGeometry x="-0.3733" relative="1" as="geometry">
                        <mxPoint x="9" y="-10" as="offset"/>
                    </mxGeometry>
                </mxCell>
            </root>
        </mxGraphModel>
    </diagram>
</mxfile>